# xmcd
# Track frame offsets:
# 150
# 22332
# 45967
# 72085
# 95807
# 112907
# 130105
# 151597
# 171245
# 194300
# 217137
# 238035
#
# Disc length: 3498 seconds
# Revision: 0
# Processed by: cddbd v1.4PL0 Copyright (c) Steve Scherf et al.
# Submitted via: VisiTrax 2.9.5.181 - For more info visit www.synapsa.com
#
DISCID=a20da80c
DTITLE=Robert Tillman - Still Thinking
DYEAR=2003
DGENRE=Blues
TTITLE0=I Can't Do Without You
TTITLE1=Been Loving You To Long
TTITLE2=Let's Get It On
TTITLE3=Woman, Lover, Friend
TTITLE4=Show Me Some Love
TTITLE5=Still Thinking
TTITLE6=Pump It Up
TTITLE7=Right Love
TTITLE8=WBGIO
TTITLE9=Ain't That Loving You
TTITLE10=It's All Good
TTITLE11=You Babe
EXTD=
EXTT0=
EXTT1=
EXTT2=
EXTT3=
EXTT4=
EXTT5=
EXTT6=
EXTT7=
EXTT8=
EXTT9=
EXTT10=
EXTT11=
PLAYORDER=
